<svg id="Layer_1" data-name="Layer 1" xmlns="http://www.w3.org/2000/svg" viewBox="0 0 172 186"><title>cup</title><path d="M110.7,74.6l-2.3-7a3.75,3.75,0,0,0-3.6-2.6H70.5a3.75,3.75,0,0,0-3.6,2.6l-2.3,7A3.76,3.76,0,0,0,61,78.4v5.7a3.8,3.8,0,0,0,3.8,3.8h2c0,.1-.1.3,0,.4l3.8,34.3a3.8,3.8,0,0,0,3.8,3.4H101a3.88,3.88,0,0,0,3.8-3.4l3.8-34.3v-.4h2a3.8,3.8,0,0,0,3.8-3.8V78.4A4,4,0,0,0,110.7,74.6ZM70.5,68.9h34.3l1.9,5.7H68.6ZM101,122.2H74.3l-.6-5.7h27.9Zm.8-7.6H73.5l-2.1-19H104Zm2.4-21h-33l-.6-5.7h34.3Zm6.3-9.5H64.8V78.4h45.7Z"/><path d="M168.7,69.33C169,53.05,162,40.82,147.72,33c-12.81-7.06-26.18-14.77-40.85-23.57C92.92,1,78.78,1,64.83,9.41,51.48,17.42,37.73,25.36,24,33,9.75,40.88,2.69,53.11,3,69.33c.3,15.64.3,31.5,0,47.14C2.69,132.75,9.75,145,24,152.81c12.81,7.06,26.17,14.77,40.85,23.57h0a40.48,40.48,0,0,0,21,6.25c7,0,14.06-2.08,21.06-6.25,14.67-8.8,28-16.51,40.86-23.57,14.23-7.89,21.28-20.12,21-36.34C168.4,100.83,168.4,85,168.7,69.33Zm-3,47.2c.29,15-6.25,26.35-19.42,33.66-12.85,7.07-26.24,14.8-40.94,23.62-13.16,7.84-25.9,7.84-39,0h0c-14.71-8.83-28.1-16.55-40.95-23.63C12.06,142.83,5.71,131.82,6,116.53c.3-15.68.3-31.58,0-47.26-.29-15,6.25-26.35,19.43-33.66C39.22,28,53,20,66.37,12c6.55-3.93,13-5.9,19.48-5.9s12.92,2,19.48,5.9c14.71,8.82,28.1,16.55,40.95,23.63C159.64,43,166,54,165.7,69.27,165.4,85,165.4,100.85,165.7,116.53Z"/></svg>