<svg id="Layer_1" data-name="Layer 1" xmlns="http://www.w3.org/2000/svg" viewBox="0 0 165.72 179.5"><title>diamond</title><path d="M168.7,69.33C169,53.05,162,40.82,147.72,33c-12.81-7.06-26.18-14.77-40.85-23.57C92.92,1,78.78,1,64.83,9.41,51.48,17.42,37.73,25.36,24,33,9.75,40.88,2.69,53.11,3,69.33c.3,15.64.3,31.5,0,47.14C2.69,132.75,9.75,145,24,152.81c12.81,7.06,26.17,14.77,40.85,23.57h0a40.48,40.48,0,0,0,21,6.25c7,0,14.06-2.08,21.06-6.25,14.67-8.8,28-16.51,40.86-23.57,14.23-7.89,21.28-20.12,21-36.34C168.4,100.83,168.4,85,168.7,69.33Zm-3,47.2c.29,15-6.25,26.35-19.42,33.66-12.85,7.07-26.24,14.8-40.94,23.62-13.16,7.84-25.9,7.84-39,0h0c-14.71-8.83-28.1-16.55-40.95-23.63C12.06,142.83,5.71,131.82,6,116.53c.3-15.68.3-31.58,0-47.26-.29-15,6.25-26.35,19.43-33.66C39.22,28,53,20,66.37,12c6.55-3.93,13-5.9,19.48-5.9s12.92,2,19.48,5.9c14.71,8.82,28.1,16.55,40.95,23.63C159.64,43,166,54,165.7,69.27,165.4,85,165.4,100.85,165.7,116.53Z" transform="translate(-2.99 -3.14)"/><path d="M115.1,67.3a5.07,5.07,0,0,0-3.6-1.5h-46a4.75,4.75,0,0,0-3.6,1.5L48.8,80.4a5.14,5.14,0,0,0-1.5,3.7,5,5,0,0,0,1.3,3.4l36,38.4a5.17,5.17,0,0,0,3.8,1.7,4.86,4.86,0,0,0,3.8-1.7l36-38.4a5.08,5.08,0,0,0,1.3-3.5,4.2,4.2,0,0,0-1.3-3.6Zm-5.5,3.6L104.7,75l-4.1-4.1Zm.2,12.9H98.2l6.3-5.3Zm-7.1-7.1-6.5,5.4-5.7-4.7,7-5.9Zm-8.5,7.1H82.8L88.5,79Zm0-12.9-5.7,4.8-5.7-4.8Zm-7.7,6.5-5.7,4.7-6.5-5.4,5.2-5.2Zm-7.8,6.4H67.1l5.3-5.3ZM76.3,70.9,72.2,75l-4.9-4.1Zm-11.8,1,5.9,4.9-6.9,6.9h-11ZM54.7,86.4h9.2l16.1,27Zm12,0H79.4L85.7,118Zm15.4,0H94.9l-6.4,32.1Zm9,31.6,6.4-31.6h12.6Zm5.9-4.6,16.1-27h9.2Zm16.5-29.5v-.1l-6.9-6.9,5.9-4.9,11.9,11.9Z" transform="translate(-2.99 -3.14)"/></svg>