<?xml version="1.0" encoding="utf-8"?>
<!-- Generator: Adobe Illustrator 21.0.1, SVG Export Plug-In . SVG Version: 6.00 Build 0)  -->
<!DOCTYPE svg PUBLIC "-//W3C//DTD SVG 1.1//EN" "http://www.w3.org/Graphics/SVG/1.1/DTD/svg11.dtd">
<svg version="1.1" id="Layer_1" xmlns="http://www.w3.org/2000/svg" xmlns:xlink="http://www.w3.org/1999/xlink" x="0px" y="0px"
	 viewBox="0 0 172 186" style="enable-background:new 0 0 172 186;" xml:space="preserve">
<style type="text/css">
	.st0{fill:none;stroke:#000000;stroke-width:3;stroke-miterlimit:10;}
</style>
<path class="st0" d="M65.6,175.1c-13.5-8.1-27.1-16-40.9-23.6c-13.8-7.6-20.5-19.3-20.2-35c0.3-15.7,0.3-31.5,0-47.2
	c-0.3-15.7,6.5-27.4,20.2-35s27.4-15.5,40.9-23.6s27-8.1,40.5,0c13.5,8.1,27.1,16,40.9,23.6s20.5,19.3,20.2,35
	c-0.3,15.7-0.3,31.5,0,47.2c0.3,15.7-6.5,27.4-20.2,35c-13.8,7.6-27.4,15.5-40.9,23.6C92.5,183.2,79.1,183.2,65.6,175.1z"/>
<path d="M128.2,80.4l-13.1-13.1c-1-1-2.3-1.5-3.6-1.5H65.5c-1.4,0-2.7,0.5-3.6,1.5L48.8,80.4c-1,1-1.5,2.3-1.5,3.7
	c0,1.2,0.4,2.4,1.3,3.4l36,38.4c1,1.1,2.4,1.7,3.8,1.7c1.5,0,2.9-0.6,3.8-1.7l36-38.4c0.9-1,1.3-2.2,1.3-3.5
	C129.7,82.7,129.2,81.4,128.2,80.4z M94.2,83.8H82.8l5.7-4.8L94.2,83.8z M90.5,77.4l7-5.9l5.2,5.2l-6.5,5.4L90.5,77.4z M80.8,82.1
	l-6.5-5.4l5.2-5.2l7,5.9L80.8,82.1z M94.9,86.4l-6.4,32.1l-6.4-32.1H94.9z M97.5,86.4h12.6l-19,31.6L97.5,86.4z M98.2,83.8l6.3-5.3
	l5.3,5.3H98.2z M100.6,70.9h9l-4.9,4.1L100.6,70.9z M88.5,75.7l-5.7-4.8h11.4L88.5,75.7z M72.2,75l-4.9-4.1h9L72.2,75z M72.4,78.5
	l6.3,5.3H67.1L72.4,78.5z M79.4,86.4l6.3,31.6l-19-31.6H79.4z M80,113.4l-25.3-27h9.2L80,113.4z M113.1,86.4h9.2l-25.3,27
	L113.1,86.4z M113.5,83.8l-6.9-6.9l5.9-4.9l11.9,11.9H113.5z M64.5,71.9l5.9,4.9l-6.9,6.9h-11L64.5,71.9z"/>
</svg>
