<svg id="Layer_1" data-name="Layer 1" xmlns="http://www.w3.org/2000/svg" viewBox="0 0 172 186"><title>phone_inny-01</title><path d="M103.3,64.1H71.9A5.85,5.85,0,0,0,66,70v51.1a5.85,5.85,0,0,0,5.9,5.9h31.4a5.85,5.85,0,0,0,5.9-5.9V70A5.85,5.85,0,0,0,103.3,64.1Zm2,57a2,2,0,0,1-2,2H71.9a2,2,0,0,1-2-2v-3.9h35.4Zm0-5.9H69.9V75.9h35.4Zm0-41.3H69.9V70a2,2,0,0,1,2-2h31.4a2,2,0,0,1,2,2Z"/><path d="M90.6,70H84.7a1,1,0,0,0,0,2h5.9a1,1,0,0,0,0-2Z"/><path d="M86.6,121.1h2a1,1,0,0,0,1-1,1.08,1.08,0,0,0-1-1h-2a1,1,0,1,0,0,2Z"/><path d="M168.7,69.33C169,53.05,162,40.82,147.72,33c-12.81-7.06-26.18-14.77-40.85-23.57C92.92,1,78.78,1,64.83,9.41,50.15,18.22,36.79,25.93,24,33,9.75,40.88,2.69,53.11,3,69.33c.3,15.64.3,31.5,0,47.14C2.69,132.75,9.75,145,24,152.81c12.81,7.06,26.17,14.77,40.85,23.57h0a40.48,40.48,0,0,0,21,6.25c7,0,14.06-2.08,21.06-6.25,14.67-8.8,28-16.51,40.86-23.57,14.23-7.89,21.28-20.12,21-36.34C168.4,100.83,168.4,85,168.7,69.33Zm-3,47.2c.29,15-6.25,26.35-19.42,33.66-12.85,7.07-26.24,14.8-40.94,23.62-13.16,7.84-25.9,7.84-39,0h0c-14.71-8.83-28.1-16.55-40.95-23.63C12.06,142.83,5.71,131.82,6,116.53c.3-15.68.3-31.58,0-47.26-.29-15,6.25-26.35,19.42-33.66C38.27,28.54,51.66,20.81,66.37,12c6.55-3.93,13-5.9,19.48-5.9s12.92,2,19.48,5.9c14.71,8.82,28.1,16.55,40.95,23.63C159.64,43,166,54,165.7,69.27,165.4,85,165.4,100.85,165.7,116.53Z"/></svg>