<?xml version="1.0" encoding="utf-8"?>
<svg xmlns="http://www.w3.org/2000/svg"
	xmlns:xlink="http://www.w3.org/1999/xlink"
	width="167px" height="181px" viewBox="0 0 167 181">
<defs>
<symbol id="symbol0"><path fillRule="evenodd" d="M 63.23 172.14C 49.82 164.08 36.27 156.26 22.58 148.67 8.9 141.08 2.19 129.46 2.46 113.82 2.74 98.17 2.74 82.53 2.46 66.88 2.19 51.24 8.9 39.62 22.58 32.03 36.27 24.44 49.82 16.62 63.23 8.56 76.65 0.51 90.06 0.51 103.47 8.56 116.89 16.62 130.44 24.44 144.12 32.03 157.81 39.62 164.51 51.24 164.24 66.88 163.97 82.53 163.97 98.17 164.24 113.82 164.51 129.46 157.81 141.08 144.12 148.67 130.44 156.26 116.89 164.08 103.47 172.14 90.06 180.19 76.65 180.19 63.23 172.14Z"/></symbol></defs>
<g><use xlink:href="#symbol0" x="0" y="0" width="167" height="181" fill="rgb(255,255,255)" opacity="0.10"/><use xlink:href="#symbol0" x="0" y="0" width="167" height="181" fill="none" stroke="rgb(255,255,255)" stroke-width="4.00px"/></g><path fillRule="evenodd" d="M 110.62 79.92C 110.62 79.92 104.98 81.22 104.98 81.22 104.98 81.22 104.98 99.09 104.98 99.09 104.98 104.7 98.56 109.66 81.73 109.66 64.91 109.66 58.49 104.7 58.49 99.09 58.49 99.09 58.49 81.22 58.49 81.22 58.49 81.22 52.84 79.92 52.84 79.92 49.95 79.25 47.93 76.71 47.93 73.74 47.93 70.77 49.95 68.23 52.84 67.56 52.84 67.56 80.31 61.22 80.31 61.22 80.8 61.11 81.27 61.06 81.73 61.06 82.2 61.06 82.67 61.11 83.13 61.22 83.13 61.22 110.63 67.56 110.63 67.56 113.52 68.23 115.54 70.77 115.54 73.74 115.54 76.71 113.52 79.25 110.62 79.92ZM 62.72 99.09C 62.72 101.43 69.06 105.43 81.73 105.43 94.41 105.43 100.75 101.43 100.75 99.09 100.75 99.09 100.75 82.2 100.75 82.2 100.75 82.2 83.16 86.25 83.16 86.25 82.67 86.36 82.2 86.42 81.73 86.42 81.27 86.42 80.8 86.36 80.34 86.26 80.34 86.26 62.72 82.2 62.72 82.2 62.72 82.2 62.72 99.09 62.72 99.09ZM 109.68 71.68C 109.68 71.68 82.21 65.34 82.21 65.34 82.05 65.31 81.89 65.29 81.73 65.29 81.57 65.29 81.42 65.31 81.26 65.34 81.26 65.34 53.79 71.68 53.79 71.68 52.83 71.9 52.16 72.75 52.16 73.74 52.16 74.72 52.83 75.58 53.79 75.8 53.79 75.8 81.26 82.14 81.26 82.14 81.42 82.17 81.57 82.19 81.73 82.19 81.89 82.19 82.05 82.17 82.21 82.14 82.21 82.14 109.68 75.8 109.68 75.8 110.63 75.58 111.31 74.72 111.31 73.74 111.31 72.75 110.63 71.9 109.68 71.68ZM 109.2 103.32C 109.2 103.32 109.2 84.3 109.2 84.3 109.2 83.13 110.15 82.19 111.31 82.19 112.48 82.19 113.43 83.13 113.43 84.3 113.43 84.3 113.43 103.32 113.43 103.32 113.43 104.48 112.48 105.43 111.31 105.43 110.15 105.43 109.2 104.48 109.2 103.32ZM 111.31 107.54C 113.65 107.54 115.54 113.66 115.54 115.99 115.54 118.33 113.65 120.22 111.31 120.22 108.98 120.22 107.09 118.33 107.09 115.99 107.09 113.66 108.98 107.54 111.31 107.54Z" fill="rgb(255,255,255)"/></svg>